HIERARCHY
ROOT Hips
{
	OFFSET 0.000000 0.000000 0.000000
	CHANNELS 6 Xposition Yposition Zposition Xrotation Yrotation Zrotation
	JOINT LeftUpLeg_virtual
	{
		OFFSET 0.000000 0.000000 0.000000
		CHANNELS 3 Xrotation Yrotation Zrotation
		JOINT LeftUpLeg
		{
			OFFSET 13.026900 -6.336304 -1.092800
			CHANNELS 3 Xrotation Yrotation Zrotation
			JOINT LeftLeg
			{
				OFFSET 0.524474 -46.096886 9.782700
				CHANNELS 3 Xrotation Yrotation Zrotation
				JOINT LeftFoot
				{
					OFFSET -0.524474 -53.427422 -12.948200
					CHANNELS 3 Xrotation Yrotation Zrotation
					JOINT LeftToeBase
					{
						OFFSET 0.192200 -14.009700 16.364100
						CHANNELS 3 Xrotation Yrotation Zrotation
						JOINT LeftToe_End
						{
							OFFSET -1.784700 -0.561700 9.474800
							CHANNELS 3 Xrotation Yrotation Zrotation
							End Site
							{
								OFFSET 0 0 0
							}
						}
					}
				}
			}
		}
	}
	JOINT RightUpLeg_virtual
	{
		OFFSET 0.000000 0.000000 0.000000
		CHANNELS 3 Xrotation Yrotation Zrotation
		JOINT RightUpLeg
		{
			OFFSET -12.883000 -6.336304 -1.092800
			CHANNELS 3 Xrotation Yrotation Zrotation
			JOINT RightLeg
			{
				OFFSET -0.524587 -46.096825 9.782800
				CHANNELS 3 Xrotation Yrotation Zrotation
				JOINT RightFoot
				{
					OFFSET 0.524587 -53.427383 -12.948300
					CHANNELS 3 Xrotation Yrotation Zrotation
					JOINT RightToeBase
					{
						OFFSET -0.192200 -14.009700 16.364100
						CHANNELS 3 Xrotation Yrotation Zrotation
						JOINT RightToe_End
						{
							OFFSET 1.784700 -0.561700 9.474800
							CHANNELS 3 Xrotation Yrotation Zrotation
							End Site
							{
								OFFSET 0 0 0
							}
						}
					}
				}
			}
		}
	}
	JOINT Spine_virtual
	{
		OFFSET 0.000000 0.000000 0.000000
		CHANNELS 3 Xrotation Yrotation Zrotation
		JOINT Spine
		{
			OFFSET 0.072000 7.257294 -0.789700
			CHANNELS 3 Xrotation Yrotation Zrotation
			JOINT Spine1
			{
				OFFSET 0.000000 12.508769 -0.658067
				CHANNELS 3 Xrotation Yrotation Zrotation
				JOINT Spine1_split
				{
					OFFSET 0.000000 12.508769 -0.658067
					CHANNELS 3 Xrotation Yrotation Zrotation
					JOINT Spine2
					{
						OFFSET 0.000000 12.508769 -0.658067
						CHANNELS 3 Xrotation Yrotation Zrotation
						JOINT Neck_virtual
						{
							OFFSET 0.000000 0.000000 0.000000
							CHANNELS 3 Xrotation Yrotation Zrotation
							JOINT Neck
							{
								OFFSET 0.000000 14.033295 7.520400
								CHANNELS 3 Xrotation Yrotation Zrotation
								JOINT Head
								{
									OFFSET 0.000000 8.198502 5.703100
									CHANNELS 3 Xrotation Yrotation Zrotation
									JOINT HeadTop_End
									{
										OFFSET 0.000000 17.760803 13.332701
										CHANNELS 3 Xrotation Yrotation Zrotation
										End Site
										{
											OFFSET 0 0 0
										}
									}
								}
							}
						}
						JOINT LeftShoulder_virtual
						{
							OFFSET 0.000000 0.000000 0.000000
							CHANNELS 3 Xrotation Yrotation Zrotation
							JOINT LeftShoulder
							{
								OFFSET 6.292450 5.785301 -0.669000
								CHANNELS 3 Xrotation Yrotation Zrotation
								JOINT LeftShoulder_split
								{
									OFFSET 6.292450 5.785301 -0.669000
									CHANNELS 3 Xrotation Yrotation Zrotation
									JOINT LeftArm
									{
										OFFSET 13.907140 -6.093903 1.965100
										CHANNELS 3 Xrotation Yrotation Zrotation
										JOINT LeftForeArm
										{
											OFFSET 34.140198 0.000000 0.000000
											CHANNELS 3 Xrotation Yrotation Zrotation
											JOINT LeftHand
											{
												OFFSET 40.960209 0.000000 0.000000
												CHANNELS 3 Xrotation Yrotation Zrotation
												End Site
												{
													OFFSET 0 0 0
												}
											}
										}
									}
								}
							}
						}
						JOINT RightShoulder_virtual
						{
							OFFSET 0.000000 0.000000 0.000000
							CHANNELS 3 Xrotation Yrotation Zrotation
							JOINT RightShoulder
							{
								OFFSET -6.292450 5.785301 -0.669000
								CHANNELS 3 Xrotation Yrotation Zrotation
								JOINT RightShoulder_split
								{
									OFFSET -6.292450 5.785301 -0.669000
									CHANNELS 3 Xrotation Yrotation Zrotation
									JOINT RightArm
									{
										OFFSET -13.907140 -6.093903 1.965100
										CHANNELS 3 Xrotation Yrotation Zrotation
										JOINT RightForeArm
										{
											OFFSET -34.140198 0.000000 0.000000
											CHANNELS 3 Xrotation Yrotation Zrotation
											JOINT RightHand
											{
												OFFSET -40.960209 0.000000 0.000000
												CHANNELS 3 Xrotation Yrotation Zrotation
												End Site
												{
													OFFSET 0 0 0
												}
											}
										}
									}
								}
							}
						}
					}
				}
			}
		}
	}
}
MOTION
Frames: 11
Frame Time: 0.03333333
5.944136 93.559631 -3.683693 0.000000 0.000000 0.000000 2.593124 -54.148179 4.059999 -46.353069 1.539581 21.859650 42.719490 -2.535090 1.894536 1.227510 -9.335508 -17.138493 -0.670545 0.207378 0.093661 0.000000 0.000000 0.000000 1.229026 -54.589819 3.750311 -35.114774 -25.413976 -34.582269 43.484136 9.130961 -3.994986 -12.083298 -5.128135 17.457289 0.432391 0.187193 0.149490 0.000000 0.000000 0.000000 4.317974 -51.477688 4.737634 9.031061 10.599236 -1.645317 3.566260 4.722410 -1.428391 0.350128 0.023723 -0.094456 0.000000 0.000000 0.000000 3.894235 4.883286 -1.158326 -2.703725 2.987333 3.131659 -5.376041 40.249099 -6.534936 0.000000 0.000000 0.000000 4.360969 4.761628 -1.909766 0.365295 -8.751281 -15.867631 -6.131639 2.047294 1.303204 -11.600760 -39.357705 -19.580518 -6.303899 -66.398987 -3.167872 0.000000 0.000000 0.000000 5.616602 5.252120 -1.487501 -4.919476 20.616233 -19.468080 1.903374 -5.247575 -4.279204 -32.064914 28.027837 30.132312 -128.505488 88.139220 127.695605 0.000000 0.000000 0.000000 
6.431121 94.278358 -3.775234 0.000000 0.000000 0.000000 2.362947 -55.411078 4.060802 -46.000344 2.621554 22.148611 41.871020 -2.919711 1.902099 1.644841 -8.701003 -17.286017 -0.738884 0.232988 -0.065472 0.000000 0.000000 0.000000 1.195449 -55.618299 3.682269 -35.727388 -24.838514 -34.071214 42.816724 8.838477 -3.882244 -10.633625 -4.586646 16.860821 0.761131 0.233860 0.078453 0.000000 0.000000 0.000000 3.741216 -52.393807 4.305754 10.577782 10.716198 -2.120093 3.644584 4.478738 -1.572624 0.259804 0.179296 -0.189852 0.000000 0.000000 0.000000 3.678669 4.695977 -1.178588 -2.596977 2.802346 3.536164 -8.316513 39.702985 -5.942923 0.000000 0.000000 0.000000 4.823414 4.325128 -1.880405 0.726411 -8.942933 -15.876881 -7.381243 2.306860 0.970961 -20.802125 -38.404897 -25.500351 -4.814227 -67.381148 -1.923157 0.000000 0.000000 0.000000 5.790536 5.063052 -1.267189 -1.742785 20.728717 -14.243019 1.795613 -4.648370 -3.964223 -22.505723 32.393832 25.272205 -170.214994 84.242481 169.480435 0.000000 0.000000 0.000000 
6.854802 95.238274 -3.757511 0.000000 0.000000 0.000000 2.250996 -57.455169 3.909749 -45.077445 4.263246 22.772469 40.623291 -3.528524 1.972920 1.409134 -7.749755 -17.467046 -0.923020 0.226087 -0.184732 0.000000 0.000000 0.000000 1.132257 -57.544303 3.379751 -36.153643 -24.179587 -33.133371 41.363226 8.561770 -3.767153 -8.921673 -3.918037 16.396209 0.928253 0.243963 0.006285 0.000000 0.000000 0.000000 3.062047 -54.232863 3.601445 12.129678 10.404170 -2.804823 3.675677 4.071827 -1.792326 0.427041 0.161254 -0.125007 0.000000 0.000000 0.000000 3.515299 4.259551 -1.357137 -2.788266 2.556217 3.892301 -10.529355 40.052004 -5.319883 0.000000 0.000000 0.000000 5.148353 3.745339 -1.918930 1.123399 -8.699974 -14.963561 -8.383874 2.465439 0.668923 -29.739955 -36.478746 -29.931866 -2.530971 -68.240939 -0.001194 0.000000 0.000000 0.000000 5.774558 4.639327 -1.320137 0.670497 20.216747 -10.335424 1.950577 -3.100224 -3.120606 -14.411131 34.538187 18.622490 -174.655259 81.376049 173.771596 0.000000 0.000000 0.000000 
7.228961 96.384232 -3.669422 0.000000 0.000000 0.000000 2.057342 -60.322195 3.456465 -43.568848 6.293423 23.723089 39.301434 -4.291950 2.073230 0.727607 -6.493960 -17.640316 -1.254043 0.186307 -0.265188 0.000000 0.000000 0.000000 1.023717 -60.273851 2.825179 -36.387174 -23.473132 -31.773521 39.153837 8.340204 -3.650973 -7.207221 -3.083250 15.993315 1.084380 0.211797 -0.030176 0.000000 0.000000 0.000000 2.208011 -56.808965 2.568264 13.435073 9.800638 -3.681627 3.699114 3.643497 -2.043485 0.546091 0.283015 -0.021388 0.000000 0.000000 0.000000 3.431127 3.716697 -1.606880 -3.288289 2.224715 4.259726 -11.730661 41.187673 -4.626926 0.000000 0.000000 0.000000 5.307846 3.179586 -1.992562 1.456681 -8.303086 -13.218819 -9.181097 2.404768 0.480484 -36.962897 -33.815874 -31.261977 0.048587 -69.817688 2.163747 0.000000 0.000000 0.000000 5.645860 4.125051 -1.579962 2.404520 19.473889 -8.006165 1.931339 -1.327307 -1.758323 -9.798914 37.481305 12.098199 -173.537102 82.025504 172.267643 0.000000 0.000000 0.000000 
7.598181 97.633415 -3.529732 0.000000 0.000000 0.000000 1.913267 -64.041896 2.826986 -41.620898 8.530721 24.909527 38.198011 -5.072832 2.177773 -0.214179 -4.829042 -17.628276 -1.490921 0.116993 -0.364066 0.000000 0.000000 0.000000 0.810285 -63.753962 2.012517 -36.434514 -22.725426 -30.052566 36.344089 8.150911 -3.512697 -5.673909 -2.036164 15.501041 1.315337 0.149387 -0.013709 0.000000 0.000000 0.000000 1.203282 -60.114885 1.245764 14.288489 9.002547 -4.690878 3.758999 3.287129 -2.243444 0.922446 0.337004 0.038509 0.000000 0.000000 0.000000 3.464625 3.195063 -1.828150 -4.087151 2.023168 4.561459 -11.943465 43.141193 -3.851823 0.000000 0.000000 0.000000 5.331699 2.743601 -2.063853 1.683239 -7.904477 -10.903522 -9.557220 2.251573 0.730791 -41.297919 -30.746561 -28.992599 2.115223 -72.454353 3.912635 0.000000 0.000000 0.000000 5.476817 3.628230 -1.898131 3.443305 18.485970 -7.240021 1.243232 -0.300826 0.130912 -9.246047 43.314696 6.915291 -166.014127 84.994614 164.204195 0.000000 0.000000 0.000000 
7.923242 98.949509 -3.426311 0.000000 0.000000 0.000000 1.683538 -68.402596 2.024883 -39.322038 10.925848 26.255023 37.260810 -5.762746 2.258458 -1.258169 -2.842649 -17.396615 -1.563944 0.035208 -0.489100 0.000000 0.000000 0.000000 0.490064 -67.710916 1.051948 -36.351547 -21.883475 -28.122979 33.283754 8.005514 -3.383859 -4.316474 -0.768365 14.933015 1.628122 0.073988 0.044919 0.000000 0.000000 0.000000 -0.069574 -63.937483 -0.342181 14.514828 8.026434 -5.766283 3.838673 3.017782 -2.322225 1.255248 -0.225515 -0.001736 0.000000 0.000000 0.000000 3.618680 2.710934 -1.885805 -5.046113 2.175263 4.737462 -11.133352 45.984389 -3.255205 0.000000 0.000000 0.000000 5.233581 2.470441 -2.057330 1.830432 -7.682250 -8.255992 -9.625045 2.076429 1.478614 -42.864922 -26.675302 -23.978749 3.184307 -75.186825 4.816756 0.000000 0.000000 0.000000 5.324113 3.169291 -2.125570 3.753542 17.039273 -7.680963 0.454310 -0.071470 1.864442 -13.339394 51.351490 5.102046 -143.730157 87.430670 141.471891 0.000000 0.000000 0.000000 
8.173717 100.278152 -3.295597 0.000000 0.000000 0.000000 1.274660 -73.061249 1.139607 -36.816991 13.504892 27.543334 36.232699 -6.324230 2.269189 -2.207086 -0.731557 -17.095984 -1.555807 -0.054848 -0.593397 0.000000 0.000000 0.000000 0.070193 -72.028388 0.082179 -36.165080 -20.966307 -26.188719 30.274930 7.957215 -3.300147 -2.962945 0.786580 14.501303 1.947331 0.009495 0.128550 0.000000 0.000000 0.000000 -1.524284 -68.138377 -2.070812 14.042441 6.925131 -6.805300 3.902521 2.788767 -2.279201 1.494872 -0.584268 0.214889 0.000000 0.000000 0.000000 3.897342 2.264882 -1.774796 -6.059696 2.792619 4.797343 -9.229205 49.841212 -3.204338 0.000000 0.000000 0.000000 5.017187 2.287516 -1.983244 1.920653 -7.691509 -5.511456 -9.351168 1.656041 2.496180 -42.356674 -21.135773 -17.738850 2.469810 -76.689746 4.178273 0.000000 0.000000 0.000000 5.145071 2.710589 -2.181239 3.550482 15.264732 -8.871746 -0.277410 -0.403953 3.240303 -23.007257 59.330623 9.292525 -119.314252 88.112596 117.034308 0.000000 0.000000 0.000000 
8.345149 101.582947 -3.102821 0.000000 0.000000 0.000000 1.203527 -77.662529 0.720601 -34.339275 16.230650 28.555564 34.869051 -6.797596 2.209182 -2.929987 1.268042 -16.776478 -1.584969 -0.163516 -0.633228 0.000000 0.000000 0.000000 -0.366504 -76.434939 -0.718319 -35.874110 -19.958813 -24.376783 27.531357 8.029998 -3.282063 -1.448299 2.556814 14.348767 2.029247 -0.033939 0.214283 0.000000 0.000000 0.000000 -2.787313 -72.489959 -3.484137 12.995623 5.680913 -7.642058 3.947515 2.551457 -2.185313 1.972682 -1.071534 0.556620 0.000000 0.000000 0.000000 4.205013 1.840464 -1.603154 -7.047094 3.924428 4.845637 -6.155051 54.751541 -4.125011 0.000000 0.000000 0.000000 4.790297 2.119545 -1.913480 2.079040 -7.780820 -2.705397 -8.674450 0.922450 3.444359 -40.774655 -14.539588 -12.088534 0.353753 -75.551099 2.336456 0.000000 0.000000 0.000000 4.955350 2.249264 -2.115119 2.888966 13.206406 -10.369375 -0.754303 -1.025124 4.067709 -37.721625 64.474595 20.406981 -132.211234 88.090425 130.422093 0.000000 0.000000 0.000000 
8.374747 102.809288 -2.931240 0.000000 0.000000 0.000000 1.837733 -81.636702 1.184624 -32.181577 19.023564 29.267569 33.074511 -7.290652 2.096842 -3.258294 2.869249 -16.532603 -1.706890 -0.286021 -0.581879 0.000000 0.000000 0.000000 -0.150965 -80.449711 -0.692982 -35.408677 -18.920993 -22.659568 25.009919 8.137048 -3.360529 0.097791 4.345486 14.410058 1.821805 -0.040423 0.291886 0.000000 0.000000 0.000000 -3.226632 -76.752366 -4.040314 11.519277 4.317759 -8.126586 3.956919 2.309276 -2.142039 2.359310 -1.107297 0.800132 0.000000 0.000000 0.000000 4.405704 1.460059 -1.498120 -7.924540 5.338344 4.976558 -1.542730 60.284930 -6.537723 0.000000 0.000000 0.000000 4.615410 1.906719 -1.921339 2.308448 -7.752476 0.197203 -8.112979 -0.302073 4.306918 -39.307906 -7.459441 -8.064196 -1.318914 -71.323130 1.069067 0.000000 0.000000 0.000000 4.716406 1.785737 -2.038846 2.063381 11.071810 -12.031438 -1.678945 -1.234213 3.970184 -52.104050 65.591604 33.294877 -162.061073 86.851661 161.263280 0.000000 0.000000 0.000000 
8.207162 103.870148 -2.658852 0.000000 0.000000 0.000000 5.020522 -84.759328 4.243765 -30.675346 21.739311 29.829936 30.924901 -7.776976 1.892240 -3.233356 4.002090 -16.248371 -1.813695 -0.417105 -0.474661 0.000000 0.000000 0.000000 2.490421 -83.772257 1.832285 -34.767360 -17.928029 -20.982034 22.413694 8.195493 -3.509019 1.381812 5.988114 14.543264 1.401177 -0.008611 0.329061 0.000000 0.000000 0.000000 -1.877095 -80.543749 -2.866101 9.848555 2.912960 -8.185333 3.951576 2.100672 -2.215041 2.469102 -0.302419 0.789177 0.000000 0.000000 0.000000 4.422792 1.169603 -1.564578 -8.694363 6.820083 5.189716 4.753895 65.742572 -10.788486 0.000000 0.000000 0.000000 4.502079 1.671740 -2.044038 2.533436 -7.533028 3.273727 -7.439516 -1.542173 5.180777 -38.739648 -1.170248 -5.737095 -2.113673 -64.893996 0.707533 0.000000 0.000000 0.000000 4.438959 1.374396 -2.070432 1.238140 8.971574 -13.776107 -2.824687 -0.929067 3.614613 -60.435645 64.779345 42.082025 -174.120291 83.648712 174.600877 0.000000 0.000000 0.000000 
7.933288 104.701622 -2.257092 0.000000 0.000000 0.000000 14.809940 -86.929607 13.917821 -29.991702 24.231069 30.265449 28.662120 -8.089341 1.604813 -3.140708 4.814481 -15.641750 -1.743991 -0.531498 -0.399334 0.000000 0.000000 0.000000 11.231681 -86.206406 10.457651 -34.324501 -17.017476 -19.536050 20.024146 8.270405 -3.665620 2.428616 7.416409 14.759593 0.954073 0.057846 0.324642 0.000000 0.000000 0.000000 2.156641 -83.538282 1.088000 8.278987 1.562311 -7.868867 3.939733 1.944856 -2.397324 2.114365 0.484441 0.586821 0.000000 0.000000 0.000000 4.277098 1.003968 -1.826744 -9.236154 8.106063 5.461011 12.625198 70.402878 -16.895743 0.000000 0.000000 0.000000 4.515248 1.440438 -2.218681 2.673246 -7.134160 6.344357 -6.666920 -2.568220 5.870548 -38.920576 4.160940 -4.540028 -2.444438 -57.316857 0.749964 0.000000 0.000000 0.000000 4.199119 1.065724 -2.234878 0.486545 6.985443 -15.577129 -3.927697 -0.444904 3.828375 -62.503683 64.032996 46.073318 -176.765583 78.240705 178.615580 0.000000 0.000000 0.000000 
